# xmcd CD database file
#
# Track frame offsets:
#	150
#	15074
#	34052
#	60108
#	73863
#	90665
#	107357
#	118109
#	136203
#	156025
#	181888
#	202997
#	216891
#	234267
#
# Disc length: 3410 seconds
#
# Revision: 0
# Processed by: cddbd v1.5.2PL0 Copyright (c) Steve Scherf et al.
# Submitted via: CDex 1.50
#
DISCID=a70d500e
DTITLE=Hattie St John Quartet - Too much Talent
DYEAR=2007
DGENRE=Jazz
TTITLE0=Head over Heels
TTITLE1=Look for the Silver Lining
TTITLE2=So many Stars
TTITLE3=Nice Work
TTITLE4=Cry me a River
TTITLE5=Anthropology
TTITLE6=It don't mean a Thing
TTITLE7=I mean You
TTITLE8=K.Rd.
TTITLE9=Perhaps
TTITLE10=Baby it's cold outside
TTITLE11=Do the Helmet
TTITLE12=Hernando's Hideaway
TTITLE13=Too much Talent
EXTD=YEAR: 2007
EXTT0=
EXTT1=
EXTT2=
EXTT3=
EXTT4=
EXTT5=
EXTT6=
EXTT7=
EXTT8=
EXTT9=
EXTT10=
EXTT11=
EXTT12=
EXTT13=
PLAYORDER=
